<?xml version="1.0" encoding="iso-8859-1"?>
<!-- Generator: Adobe Illustrator 18.1.1, SVG Export Plug-In . SVG Version: 6.00 Build 0)  -->
<svg xmlns="http://www.w3.org/2000/svg" xmlns:xlink="http://www.w3.org/1999/xlink" version="1.1" id="Capa_1" x="0px" y="0px" viewBox="0 0 334.736 334.736" style="enable-background:new 0 0 334.736 334.736;" xml:space="preserve" width="512px" height="512px">
<g>
	<g>
		<path d="M216.82,59.4c-8.501,6.152-45.373,30.611-101.993,36.958l-4.569,53.384l-0.838,9.801    c16.518,26.227,45.65,43.714,78.937,43.714c26.635,0,50.605-11.215,67.608-29.115l3.111-18.553    c0.087-0.517,8.452-52.22-12.771-79.791C239.055,66.384,229.395,61.005,216.82,59.4z M144.655,117.44    c0-6.793,5.51-12.303,12.303-12.303s12.303,5.51,12.303,12.303c0,6.793-5.51,12.303-12.303,12.303S144.655,124.234,144.655,117.44    z M210.832,167.964c-14.239-9.992-32.341-9.007-46.716,0.054c-7.038,4.433-14.234-6.271-7.201-10.71    c19.673-12.401,43.279-12.488,62.413,0.941C226.148,163.036,217.565,172.685,210.832,167.964z M221.83,129.743    c-6.793,0-12.303-5.51-12.303-12.303s5.51-12.303,12.303-12.303s12.303,5.51,12.303,12.303S228.623,129.743,221.83,129.743z" fill="#aeaeae"/>
		<path d="M280.028,127.1c3.835-10.1,5.803-19.504,6.434-28.136c1.023-14.022-1.43-26.004-5.058-35.642    c-6.598-17.53-16.975-27.293-16.975-27.293C265.309,15.474,224.62,0,184.082,0c-29.409,0-58.742,8.153-72.03,28.43    c-7.136,10.889-12.004,21.571-15.24,31.819c-3.416,10.818-4.988,21.136-5.319,30.665c-0.664,19.037,3.503,34.902,7.364,45.264    c3.1,8.316,5.988,13.103,5.988,13.103l4.95-57.872c65.356-6.081,105.491-37.649,105.491-37.649    c65.356,6.081,49.153,102.728,49.153,102.728C271.504,146.142,276.519,136.341,280.028,127.1z" fill="#aeaeae"/>
		<path d="M258.516,215.077h-19.227h-9.709l-1.099,9.649c-0.642,5.635-2.475,11.498-12.145,15.17h-0.31v0.131    c-6.026,2.219-15.012,3.606-28.512,3.606c-35.816,0-39.928-9.758-40.967-18.906l-1.099-9.649h-9.709H117.1    c-5.526,0-10.911,0.626-16.105,1.751l0.887,4.884l0.087,0.479l0.974,5.352l5.765,31.71l-6.902,1.256v63.354H82.426v-59.841    l-18.694,3.399v56.436H51.832v-32.634c0-7.87,1.463-15.382,4.019-22.371l-6.184,1.126l-5.918,1.077    c-1.773,6.434-2.796,13.179-2.796,20.168v32.634v10.878h10.878h271.953h10.878v-10.878v-32.634    C334.663,249.24,300.5,215.077,258.516,215.077z M158.573,251.312c5.76,1.681,12.303,2.578,19.379,2.959v69.587h-19.379V251.312z     M292.168,235.381v88.477h-19.379V227.57C279.745,229.126,286.25,231.807,292.168,235.381z M254.094,225.955v97.903h-19.379    v-83.957h-0.517c2.66-3.704,4.438-8.267,5.086-13.94h14.811V225.955z M216.021,323.858h-19.379v-69.571    c7.06-0.359,13.609-1.218,19.379-2.845V323.858z M323.785,323.858h-12.918v-71.491c8.077,10.867,12.918,24.28,12.918,38.862    V323.858z M120.5,225.955h15.24c0.577,5.091,2.094,9.263,4.313,12.755h-0.174v85.149H120.5V225.955z" fill="#aeaeae"/>
		<path d="M45.636,265.182l6.201-1.126l6.543-1.191l5.347-0.974l18.694-3.399l19.379-3.519l0.582-0.103    l-0.582-3.187l-4.139-22.784l-0.974-5.352l-0.974-5.357l-14.767-81.232L0.073,151.657l21.43,117.913L45.636,265.182z     M30.641,177.634l18.912,13.103l13.103-18.912l14.8,10.253L64.352,200.99l18.912,13.103l-10.253,14.8L54.1,215.789l-13.103,18.912    l-14.8-10.253L39.3,205.537l-18.912-13.103L30.641,177.634z" fill="#aeaeae"/>
	</g>
</g>
<g>
</g>
<g>
</g>
<g>
</g>
<g>
</g>
<g>
</g>
<g>
</g>
<g>
</g>
<g>
</g>
<g>
</g>
<g>
</g>
<g>
</g>
<g>
</g>
<g>
</g>
<g>
</g>
<g>
</g>
</svg>
